<svg width="77" height="77" viewBox="0 0 77 77" fill="none" xmlns="http://www.w3.org/2000/svg">
<path d="M54.8461 26.7616H35.3382C34.8741 26.7616 34.4995 26.387 34.4995 25.9229C34.4995 25.4588 34.8741 25.0842 35.3382 25.0842H54.8461C55.3102 25.0842 55.6848 25.4588 55.6848 25.9229C55.6848 26.387 55.3102 26.7616 54.8461 26.7616Z" fill="url(#paint0_linear_272_130)"/>
<path d="M26.2419 26.7616H21.3719C20.9078 26.7616 20.5332 26.387 20.5332 25.9229C20.5332 25.4588 20.9078 25.0842 21.3719 25.0842H26.2419C26.706 25.0842 27.0806 25.4588 27.0806 25.9229C27.0806 26.387 26.706 26.7616 26.2419 26.7616Z" fill="url(#paint1_linear_272_130)"/>
<path d="M30.7982 31.3078C27.8236 31.3078 25.4082 28.8924 25.4082 25.9234C25.4082 22.9489 27.8236 20.5334 30.7982 20.5334C33.7671 20.5334 36.1826 22.9489 36.1826 25.9234C36.177 28.8924 33.7671 31.3078 30.7982 31.3078ZM30.7982 22.2108C28.7518 22.2108 27.0856 23.877 27.0856 25.9234C27.0856 27.9698 28.7518 29.6304 30.7982 29.6304C32.8446 29.6304 34.5052 27.9698 34.5052 25.9234C34.4996 23.877 32.839 22.2108 30.7982 22.2108Z" fill="url(#paint2_linear_272_130)"/>
<path d="M54.8461 39.4423H47.639C47.1749 39.4423 46.8003 39.0677 46.8003 38.6036C46.8003 38.1395 47.1749 37.7649 47.639 37.7649H54.8461C55.3102 37.7649 55.6848 38.1395 55.6848 38.6036C55.6848 39.0677 55.3102 39.4423 54.8461 39.4423Z" fill="url(#paint3_linear_272_130)"/>
<path d="M38.5426 39.4423H21.3719C20.9078 39.4423 20.5332 39.0677 20.5332 38.6036C20.5332 38.1395 20.9078 37.7649 21.3719 37.7649H38.5426C39.0067 37.7649 39.3813 38.1395 39.3813 38.6036C39.3813 39.0677 39.0067 39.4423 38.5426 39.4423Z" fill="url(#paint4_linear_272_130)"/>
<path d="M43.0999 43.9885C40.1254 43.9885 37.71 41.573 37.71 38.6041C37.71 35.6295 40.1254 33.2141 43.0999 33.2141C46.0689 33.2141 48.4843 35.6295 48.4843 38.6041C48.4787 41.573 46.0633 43.9885 43.0999 43.9885ZM43.0999 34.8915C41.0535 34.8915 39.3873 36.5577 39.3873 38.6041C39.3873 40.6505 41.0535 42.3111 43.0999 42.3111C45.1463 42.3111 46.8069 40.6505 46.8069 38.6041C46.8014 36.5577 45.1407 34.8915 43.0999 34.8915Z" fill="url(#paint5_linear_272_130)"/>
<path d="M54.8469 52.1242H37.5755C37.1114 52.1242 36.7368 51.7495 36.7368 51.2855C36.7368 50.8214 37.1114 50.4468 37.5755 50.4468H54.8469C55.311 50.4468 55.6856 50.8214 55.6856 51.2855C55.6856 51.7495 55.311 52.1242 54.8469 52.1242Z" fill="url(#paint6_linear_272_130)"/>
<path d="M28.4784 52.1242H21.3719C20.9078 52.1242 20.5332 51.7495 20.5332 51.2855C20.5332 50.8214 20.9078 50.4468 21.3719 50.4468H28.4784C28.9425 50.4468 29.3171 50.8214 29.3171 51.2855C29.3171 51.7495 28.9425 52.1242 28.4784 52.1242Z" fill="url(#paint7_linear_272_130)"/>
<path d="M33.035 56.6757C30.0604 56.6757 27.645 54.2547 27.645 51.2858C27.645 48.3168 30.0604 45.9014 33.035 45.9014C36.004 45.9014 38.4194 48.3168 38.4194 51.2858C38.4138 54.2603 36.004 56.6757 33.035 56.6757ZM33.035 47.5787C30.9886 47.5787 29.3224 49.2394 29.3224 51.2858C29.3224 53.3322 30.9886 54.9983 33.035 54.9983C35.0814 54.9983 36.742 53.3322 36.742 51.2858C36.7364 49.2394 35.0758 47.5787 33.035 47.5787Z" fill="url(#paint8_linear_272_130)"/>
<defs>
<linearGradient id="paint0_linear_272_130" x1="55.6848" y1="25.9229" x2="34.4995" y2="25.9229" gradientUnits="userSpaceOnUse">
<stop stop-color="#B840F0"/>
<stop offset="1" stop-color="#6BADE0"/>
</linearGradient>
<linearGradient id="paint1_linear_272_130" x1="27.0806" y1="25.9229" x2="20.5332" y2="25.9229" gradientUnits="userSpaceOnUse">
<stop stop-color="#B840F0"/>
<stop offset="1" stop-color="#6BADE0"/>
</linearGradient>
<linearGradient id="paint2_linear_272_130" x1="36.1826" y1="25.9206" x2="25.4082" y2="25.9206" gradientUnits="userSpaceOnUse">
<stop stop-color="#B840F0"/>
<stop offset="1" stop-color="#6BADE0"/>
</linearGradient>
<linearGradient id="paint3_linear_272_130" x1="55.6848" y1="38.6036" x2="46.8003" y2="38.6036" gradientUnits="userSpaceOnUse">
<stop stop-color="#B840F0"/>
<stop offset="1" stop-color="#6BADE0"/>
</linearGradient>
<linearGradient id="paint4_linear_272_130" x1="39.3813" y1="38.6036" x2="20.5332" y2="38.6036" gradientUnits="userSpaceOnUse">
<stop stop-color="#B840F0"/>
<stop offset="1" stop-color="#6BADE0"/>
</linearGradient>
<linearGradient id="paint5_linear_272_130" x1="48.4843" y1="38.6013" x2="37.71" y2="38.6013" gradientUnits="userSpaceOnUse">
<stop stop-color="#B840F0"/>
<stop offset="1" stop-color="#6BADE0"/>
</linearGradient>
<linearGradient id="paint6_linear_272_130" x1="55.6856" y1="51.2855" x2="36.7368" y2="51.2855" gradientUnits="userSpaceOnUse">
<stop stop-color="#B840F0"/>
<stop offset="1" stop-color="#6BADE0"/>
</linearGradient>
<linearGradient id="paint7_linear_272_130" x1="29.3171" y1="51.2855" x2="20.5332" y2="51.2855" gradientUnits="userSpaceOnUse">
<stop stop-color="#B840F0"/>
<stop offset="1" stop-color="#6BADE0"/>
</linearGradient>
<linearGradient id="paint8_linear_272_130" x1="38.4194" y1="51.2885" x2="27.645" y2="51.2885" gradientUnits="userSpaceOnUse">
<stop stop-color="#B840F0"/>
<stop offset="1" stop-color="#6BADE0"/>
</linearGradient>
</defs>
</svg>
