<svg width="77" height="77" viewBox="0 0 77 77" fill="none" xmlns="http://www.w3.org/2000/svg">
<rect width="77" height="77" rx="38.5" fill="#090717"/>
<path d="M57.0828 58.5073C56.7068 58.5073 56.3485 58.3569 56.0809 58.0937L46.931 48.9392C46.4312 48.3775 46.4533 47.5259 46.9863 46.9951C47.5171 46.4621 48.3687 46.44 48.9304 46.9398L58.0849 56.0897C58.4918 56.4945 58.6135 57.1049 58.3923 57.6335C58.1733 58.1644 57.6557 58.5095 57.0828 58.5073Z" fill="url(#paint0_linear_272_119)"/>
<path d="M36.3212 54.152C30.7763 54.1498 25.5502 51.5687 22.179 47.1695C18.8061 42.7704 17.6715 37.0531 19.1091 31.6985C20.5468 26.3461 24.393 21.9648 29.5154 19.8455C34.6378 17.7289 40.4545 18.1115 45.252 20.8872C50.0515 23.6608 53.287 28.509 54.0084 34.0051C54.7272 39.5013 52.8516 45.0218 48.9302 48.9388C45.5861 52.2829 41.0501 54.1609 36.3212 54.152ZM36.3212 21.312C31.6544 21.312 27.2528 23.4839 24.411 27.1864C21.5712 30.8889 20.6135 35.7016 21.8211 40.2092C23.0287 44.7167 26.2645 48.4061 30.5775 50.1908C34.8882 51.9757 39.7851 51.655 43.8256 49.3216C47.8686 46.9882 50.5934 42.9053 51.2015 38.2783C51.8096 33.6512 50.2306 29.0066 46.9306 25.7068C44.1195 22.889 40.2998 21.3099 36.3211 21.3187L36.3212 21.312Z" fill="url(#paint1_linear_272_119)"/>
<defs>
<linearGradient id="paint0_linear_272_119" x1="58.5013" y1="52.5434" x2="46.5708" y2="52.5434" gradientUnits="userSpaceOnUse">
<stop stop-color="#B840F0"/>
<stop offset="1" stop-color="#6BADE0"/>
</linearGradient>
<linearGradient id="paint1_linear_272_119" x1="54.1592" y1="36.3225" x2="18.499" y2="36.3225" gradientUnits="userSpaceOnUse">
<stop stop-color="#B840F0"/>
<stop offset="1" stop-color="#6BADE0"/>
</linearGradient>
</defs>
</svg>
