<svg width="77" height="77" viewBox="0 0 77 77" fill="none" xmlns="http://www.w3.org/2000/svg">
<path d="M34.42 32.5249C34.9435 33.0485 34.9435 33.8944 34.42 34.418C34.1582 34.6798 33.8162 34.8098 33.4743 34.8098C33.1323 34.8098 32.7886 34.6798 32.5286 34.418L22.94 24.8331V31.4349C22.94 32.1758 22.3416 32.7742 21.6007 32.7742C20.8616 32.7742 20.2632 32.1758 20.2632 31.4367V21.6024C20.2632 21.4279 20.2988 21.2552 20.3665 21.0913C20.5018 20.7636 20.7636 20.5018 21.0913 20.3665C21.2552 20.2988 21.4279 20.2632 21.6025 20.2632H31.4368C32.1777 20.2632 32.7761 20.8616 32.7761 21.6025C32.7761 22.3433 32.1777 22.9417 31.4368 22.9417L24.835 22.9399L34.42 32.5249ZM32.5268 42.5802L22.94 52.1669V45.5633C22.94 44.8225 22.3416 44.2241 21.6007 44.2241C20.8616 44.2241 20.2632 44.8225 20.2632 45.5633V55.3994C20.2632 55.5739 20.2988 55.7467 20.3665 55.9105C20.5019 56.2382 20.7637 56.5 21.0914 56.6354C21.2552 56.7012 21.428 56.7369 21.6025 56.7369H31.4369C32.1777 56.7369 32.7761 56.1385 32.7761 55.3976C32.7761 54.6567 32.1777 54.0583 31.4369 54.0583L24.8332 54.0601L34.4182 44.4753C34.9418 43.9517 34.9418 43.1057 34.4182 42.5821C33.8964 42.0568 33.0504 42.0567 32.5268 42.5802ZM55.398 44.2241C54.6571 44.2241 54.0587 44.8225 54.0587 45.5633V52.1669L44.4751 42.5802C43.9515 42.0567 43.1055 42.0567 42.5819 42.5802C42.0583 43.1038 42.0583 43.9498 42.5819 44.4734L52.1669 54.0582L45.5632 54.06C44.8224 54.06 44.224 54.6584 44.224 55.3993C44.2257 56.1384 44.8241 56.7368 45.5632 56.7368H55.3976C55.5721 56.7368 55.7449 56.7011 55.9087 56.6335C56.2364 56.4981 56.4983 56.2363 56.6336 55.9086C56.7012 55.7448 56.7369 55.572 56.7369 55.3975V45.5633C56.7369 44.8224 56.1388 44.2241 55.398 44.2241ZM56.6339 21.0915C56.4986 20.7638 56.2368 20.502 55.9091 20.3667C55.7453 20.299 55.5725 20.2634 55.398 20.2634H45.5636C44.8227 20.2634 44.2243 20.8618 44.2243 21.6026C44.2243 22.3435 44.8227 22.9419 45.5636 22.9419H52.1654L42.5818 32.5254C42.0583 33.049 42.0583 33.8949 42.5818 34.4185C42.8436 34.6803 43.1856 34.8103 43.5275 34.8103C43.8695 34.8103 44.2132 34.6803 44.4732 34.4185L54.0582 24.8337V31.4354C54.0582 32.1763 54.6566 32.7747 55.3975 32.7747C56.1383 32.7747 56.7367 32.1763 56.7367 31.4372V21.603C56.7367 21.4284 56.7011 21.2557 56.6335 21.0918L56.6339 21.0915Z" fill="url(#paint0_linear_272_141)"/>
<defs>
<linearGradient id="paint0_linear_272_141" x1="56.7369" y1="38.5" x2="20.2632" y2="38.5" gradientUnits="userSpaceOnUse">
<stop stop-color="#B840F0"/>
<stop offset="1" stop-color="#6BADE0"/>
</linearGradient>
</defs>
</svg>
